<?xml version="1.0" encoding="iso-8859-1"?>
<!-- Generator: Adobe Illustrator 19.0.0, SVG Export Plug-In . SVG Version: 6.00 Build 0)  -->
<svg version="1.1" id="Capa_1" xmlns="http://www.w3.org/2000/svg" xmlns:xlink="http://www.w3.org/1999/xlink" x="0px" y="0px"
	 viewBox="0 0 512 512" style="enable-background:new 0 0 512 512;" xml:space="preserve">
<polygon style="fill:#06F5DD;" points="504.5,76 444.5,82.036 444.5,429.964 504.5,436 "/>
<polygon style="fill:#8CFFF3;" points="256,126 7.5,76 7.5,436 256,386 474.5,429.964 474.5,82.036 "/>
<polygon style="fill:#44E1DF;" points="474.5,407.026 444.5,407.026 474.5,436 504.5,436 "/>
<polygon style="fill:#06F5DD;" points="256,196 7.5,436 474.5,436 474.5,407.026 "/>
<polygon style="fill:#8CFFF3;" points="474.5,76 444.5,104.974 474.5,104.974 504.5,76 "/>
<path style="fill:#DBFFF8;" d="M7.5,76l205.342,198.318c23.737,22.925,62.579,22.925,86.316,0L474.5,104.974V76H7.5z"/>
<path d="M504.5,68.5H7.5C3.357,68.5,0,71.857,0,76v360c0,4.143,3.357,7.5,7.5,7.5h497c4.143,0,7.5-3.357,7.5-7.5V76
	C512,71.857,508.643,68.5,504.5,68.5z M497,428.5H15v-345h482V428.5z"/>
<path d="M182.985,256.054L32.309,400.588c-2.989,2.867-3.089,7.614-0.221,10.604c1.473,1.536,3.441,2.309,5.413,2.309
	c1.867,0,3.737-0.693,5.19-2.088L193.815,266.45l13.817,13.263c13.338,12.882,30.855,19.32,48.374,19.32
	c17.511,0,35.022-6.437,48.346-19.305l13.833-13.279l151.124,144.963c1.453,1.395,3.323,2.088,5.19,2.088
	c1.972,0,3.94-0.772,5.413-2.309c2.868-2.989,2.769-7.736-0.221-10.604L329.014,256.054l150.68-144.644
	c2.987-2.868,3.085-7.616,0.216-10.604c-2.869-2.99-7.616-3.087-10.604-0.217L313.755,249.91c-0.367,0.264-0.718,0.56-1.042,0.898
	c-0.184,0.191-0.354,0.39-0.513,0.595l-18.251,17.52c-20.924,20.207-54.97,20.209-75.913-0.016l-18.234-17.504
	c-0.159-0.205-0.33-0.404-0.514-0.596c-0.324-0.339-0.676-0.635-1.043-0.899L42.694,100.59c-2.99-2.87-7.735-2.771-10.604,0.217
	c-2.869,2.987-2.771,7.735,0.216,10.604L182.985,256.054z"/>
<g>
</g>
<g>
</g>
<g>
</g>
<g>
</g>
<g>
</g>
<g>
</g>
<g>
</g>
<g>
</g>
<g>
</g>
<g>
</g>
<g>
</g>
<g>
</g>
<g>
</g>
<g>
</g>
<g>
</g>
</svg>
