<?xml version="1.0" encoding="utf-8"?>
<!-- Generator: Adobe Illustrator 21.0.0, SVG Export Plug-In . SVG Version: 6.00 Build 0)  -->
<svg version="1.1" id="레이어_1" xmlns="http://www.w3.org/2000/svg" xmlns:xlink="http://www.w3.org/1999/xlink" x="0px"
	 y="0px" viewBox="0 0 109 24" style="enable-background:new 0 0 109 24;" xml:space="preserve">
<style type="text/css">
	.st0{display:none;}
	.st1{display:inline;}
	.st2{fill:#FF4400;}
	.st3{fill:#FF0000;}
	.st4{fill:#FF3100;}
	.st5{font-family:'Geometric415BT-BlackA';}
	.st6{font-size:33.582px;}
</style>
<g id="레이어_1_1_" xmlns:figma="http://www.figma.com/figma/ns" class="st0">
	<title>Logo</title>
	<g transform="translate(-1470)" figma:type="canvas" class="st1">
		<g transform="translate(1470)" figma:type="vector">
			<g>
				<path id="b" class="st2" d="M22.7,23.2c0.3,0.3,0.1,0.8-0.4,0.8h-5.9c-0.3,0-0.6-0.1-0.7-0.3L6.3,13.1v10.4
					c0,0.3-0.2,0.5-0.5,0.5H0.5C0.2,24,0,23.8,0,23.5v-23C0,0.2,0.2,0,0.5,0h5.3c0.3,0,0.5,0.2,0.5,0.5v9.8l9.1-10
					C15.6,0.1,15.9,0,16.2,0H22c0.4,0,0.7,0.5,0.4,0.8l-9.9,10.6L22.7,23.2L22.7,23.2z"/>
			</g>
			<g>
				<path id="c" class="st2" d="M46,24c-0.2,0-0.4-0.1-0.5-0.3l-2-4.7H32.8l-2,4.7c-0.1,0.2-0.3,0.3-0.5,0.3h-5.2
					c-0.4,0-0.6-0.4-0.5-0.7l10.8-23C35.6,0.1,35.7,0,35.9,0h4.4c0.2,0,0.4,0.1,0.5,0.3l10.8,23c0.2,0.3-0.1,0.7-0.5,0.7
					C51.1,24,46,24,46,24z M34.9,14.3h6.6l-3.3-7.7L34.9,14.3L34.9,14.3z"/>
			</g>
			<g>
				<path id="d" class="st2" d="M55.5,24c-0.3,0-0.5-0.2-0.5-0.5v-23C55,0.2,55.2,0,55.5,0h5.3c0.3,0,0.5,0.2,0.5,0.5v18.4h9.8
					c0.3,0,0.5,0.2,0.5,0.5v4.1c0,0.3-0.2,0.5-0.5,0.5H55.5z"/>
			</g>
			<g>
				<path id="e" class="st2" d="M75.3,0.5c0-0.3,0.2-0.5,0.5-0.5h9.3c2.7,0,5,0.5,6.9,1.4c1.9,1,3.4,2.3,4.4,4.2
					c1,1.8,1.5,3.9,1.5,6.4s-0.5,4.7-1.5,6.5s-2.5,3.2-4.4,4.1c-1.9,1-4.2,1.4-6.9,1.4h-9.3c-0.3,0-0.5-0.2-0.5-0.5V0.5z M84.6,19
					c2.4,0,4.1-0.6,5.3-1.7s1.7-2.9,1.7-5.2S91,8,89.9,6.9C88.8,5.6,87,5,84.6,5h-3.1v14H84.6z"/>
			</g>
			<g>
				<path id="f" class="st2" d="M102.9,24c-0.3,0-0.5-0.2-0.5-0.5v-23c0-0.3,0.2-0.5,0.5-0.5h5.3c0.3,0,0.5,0.2,0.5,0.5v23
					c0,0.3-0.2,0.5-0.5,0.5H102.9z"/>
			</g>
		</g>
	</g>
</g>
<g id="레이어_2" class="st0">
	<g class="st1">
		<path class="st3" d="M1,0h8.1v24H1V0z M5.5,21.1V2.9H4.6v18.3L5.5,21.1L5.5,21.1z"/>
		<path class="st3" d="M18.4,0h14.1v6.3H26V9h6.4v6H26v9h-7.7L18.4,0L18.4,0z M23,21.1v-8.7h6.8v-0.9H23V3.7h7.2V2.9H22v18.3
			L23,21.1L23,21.1z"/>
		<path class="st3" d="M46.2,13.7L38.8,0h8.5l2.8,5.1L52.8,0h8.5l-7.5,13.7V24h-7.7V13.7H46.2z M50.5,21.1v-8.6l5.3-9.6h-1.1
			l-4.6,8.5l-4.6-8.5h-1.1l5.2,9.6v8.6H50.5z"/>
		<path class="st3" d="M67.2,0H73l9,24h-7.6l-0.8-2.2h-7.3L65.6,24H58L67.2,0z M63.4,21.1l0.7-1.8H76l0.7,1.8h1l-7-18.2h-1.4
			l-6.9,18.3L63.4,21.1L63.4,21.1z M70.1,3.7l5.6,14.7H64.4L70.1,3.7z M71.7,16.6l-1.6-4.2l-1.6,4.2H71.7z"/>
		<path class="st3" d="M91.4,0h4.4c0.4,0,0.8,0.3,1,0.7l8.3,22c0.3,0.7-0.2,1.4-1,1.4h-5.4c-0.4,0-0.8-0.3-1-0.7l-0.3-0.8
			c-0.1-0.4-0.5-0.7-1-0.7h-5.8c-0.4,0-0.8,0.3-1,0.7l-0.3,0.8c-0.1,0.4-0.5,0.7-1,0.7H83c-0.7,0-1.2-0.7-1-1.4l8.3-22
			C90.6,0.3,90.9,0,91.4,0z M86.9,21.1l0.4-1.1c0.2-0.4,0.5-0.7,1-0.7h10.5c0.4,0,0.8,0.3,1,0.7l0.4,1.1h1L94.5,3.5
			c-0.1-0.4-0.5-0.6-0.9-0.6l0,0c-0.4,0-0.8,0.3-0.9,0.6L86,21.1H86.9z M94.5,6.2L98.6,17c0.3,0.7-0.2,1.4-1,1.4h-8.3
			c-0.7,0-1.2-0.7-1-1.4l4.1-10.8C92.9,5.4,94.1,5.4,94.5,6.2z M94.6,15l-0.1-0.2c-0.3-0.9-1.6-0.9-1.9,0L92.5,15
			c-0.3,0.7,0.3,1.5,1,1.5l0,0C94.3,16.6,94.8,15.8,94.6,15z"/>
	</g>
</g>
<g id="레이어_2_1_" class="st0">
</g>
<text transform="matrix(1.1011 0 0 1 -2.6869 23.9795)" class="st4 st5 st6">IFYAA</text>
</svg>
